HIERARCHY
ROOT Hips
{
 OFFSET 0.000000 0.000000 0.000000
 CHANNELS 6 Xposition Yposition Zposition Yrotation Xrotation Zrotation
 JOINT Chest
 {
  OFFSET 0.000000 9.588913 -0.003946
  CHANNELS 3 Yrotation Xrotation Zrotation
  JOINT Chest2
  {
   OFFSET 0.000000 9.541882 0.008053
   CHANNELS 3 Yrotation Xrotation Zrotation
   JOINT Chest3
   {
    OFFSET 0.000000 9.501360 0.000000
    CHANNELS 3 Yrotation Xrotation Zrotation
    JOINT Chest4
    {
     OFFSET 0.000000 9.491660 0.000000
     CHANNELS 3 Yrotation Xrotation Zrotation
     JOINT Neck
     {
      OFFSET 0.000000 14.331917 0.000000
      CHANNELS 3 Yrotation Xrotation Zrotation
      JOINT Head
      {
       OFFSET 0.000000 8.884799 0.017034
       CHANNELS 3 Yrotation Xrotation Zrotation
       End Site
       {
        OFFSET 0.000000 16.896195 0.008993
       }
      }
     }
     JOINT RightCollar
     {
      OFFSET -2.923010 9.499495 0.000000
      CHANNELS 3 Yrotation Xrotation Zrotation
      JOINT RightShoulder
      {
       OFFSET -13.795216 0.000000 0.000000
       CHANNELS 3 Yrotation Xrotation Zrotation
       JOINT RightElbow
       {
        OFFSET -30.272209 0.000000 0.000000
        CHANNELS 3 Yrotation Xrotation Zrotation
        JOINT RightWrist
        {
         OFFSET -24.478199 0.000000 0.000000
         CHANNELS 3 Yrotation Xrotation Zrotation
         End Site
         {
          OFFSET -18.090752 0.000000 0.000000
         }
        }
       }
      }
     }
     JOINT LeftCollar
     {
      OFFSET 2.923010 9.499495 0.000000
      CHANNELS 3 Yrotation Xrotation Zrotation
      JOINT LeftShoulder
      {
       OFFSET 13.795216 0.000000 0.000000
       CHANNELS 3 Yrotation Xrotation Zrotation
       JOINT LeftElbow
       {
        OFFSET 30.272209 0.000000 0.000000
        CHANNELS 3 Yrotation Xrotation Zrotation
        JOINT LeftWrist
        {
         OFFSET 24.478199 0.000000 0.000000
         CHANNELS 3 Yrotation Xrotation Zrotation
         End Site
         {
          OFFSET 18.090752 0.000000 0.000000
         }
        }
       }
      }
     }
    }
   }
  }
 }
 JOINT RightHip
 {
  OFFSET -7.826875 0.019532 0.001973
  CHANNELS 3 Yrotation Xrotation Zrotation
  JOINT RightKnee
  {
   OFFSET 0.000000 -40.546152 -0.001885
   CHANNELS 3 Yrotation Xrotation Zrotation
   JOINT RightAnkle
   {
    OFFSET 0.000000 -39.417092 -0.003189
    CHANNELS 3 Yrotation Xrotation Zrotation
    JOINT RightToe
    {
     OFFSET 0.000000 -7.579396 17.243563
     CHANNELS 3 Yrotation Xrotation Zrotation
     End Site
     {
      OFFSET 0.000000 -1.500329 6.694466
     }
    }
   }
  }
 }
 JOINT LeftHip
 {
  OFFSET 7.826875 0.019532 0.001973
  CHANNELS 3 Yrotation Xrotation Zrotation
  JOINT LeftKnee
  {
   OFFSET 0.000000 -40.546152 -0.001885
   CHANNELS 3 Yrotation Xrotation Zrotation
   JOINT LeftAnkle
   {
    OFFSET 0.000000 -39.417092 -0.003189
    CHANNELS 3 Yrotation Xrotation Zrotation
    JOINT LeftToe
    {
     OFFSET 0.000000 -7.579396 17.243563
     CHANNELS 3 Yrotation Xrotation Zrotation
     End Site
     {
      OFFSET 0.000000 -1.500329 6.694466
     }
    }
   }
  }
 }
}
MOTION
Frames: 13
Frame Time: 0.008333
0.000000 87.345680 0.000000 0.000000 -5.767889 0.000000 0.000000 11.653876 0.000000 0.000000 -5.885988 0.000000 0.000000 -0.000000 0.000000 0.000000 -0.000000 0.000000 0.000000 12.528808 0.000000 0.000000 0.711711 0.000000 0.000000 -0.000000 0.000000 0.000000 -0.000000 0.000000 2.309063 -0.000000 0.000000 -2.309063 -0.000000 -0.000000 0.000000 -0.000000 0.000000 0.000000 0.000000 0.000000 -2.309063 0.000000 0.000000 2.309063 -0.000000 0.000000 0.000000 8.520374 0.000000 0.000000 1.905768 0.000000 -0.000000 -4.658254 0.000000 0.000000 -0.000000 0.000000 0.000000 8.520374 0.000000 0.000000 1.905768 0.000000 -0.000000 -4.658254 0.000000 0.000000 -0.000000 0.000000
20.871882 89.179899 3.683001 -139.643642 -2.299118 0.081906 2.987527 0.669265 -0.225387 1.706621 0.377035 -0.092961 2.133193 0.471713 -0.114443 1.706621 0.377035 -0.092961 6.578932 13.393553 -0.915203 7.347517 -11.505020 -2.532456 -8.590745 -1.403424 0.971342 -1.976433 -0.669065 89.432845 -0.559523 7.488977 0.396045 -3.062194 3.366914 0.088798 -9.435393 -1.068393 0.962392 4.313471 0.380891 -91.893676 1.493564 4.366376 1.028033 0.925565 3.593144 -0.882735 -1.211347 7.317485 0.831598 0.617529 1.708639 -1.299473 -1.640814 -6.006862 -0.058288 0.011410 -0.078184 0.001273 0.406974 6.951033 -0.305515 2.421293 0.444386 0.326069 3.027322 -3.949185 -0.918630 -0.002754 0.085020 -0.002115
20.878496 89.179968 3.688369 -139.647146 -2.297815 0.081401 2.992856 0.664422 -0.224673 1.709785 0.375253 -0.092773 2.137147 0.469486 -0.114214 1.709785 0.375253 -0.092773 6.547002 13.396474 -0.913610 7.310464 -11.503219 -2.522588 -8.596902 -1.405177 0.963046 -1.964154 -0.669740 89.443838 -0.576733 7.489978 0.396248 -3.063235 3.366865 0.088172 -9.449258 -1.061067 0.967639 4.311299 0.374242 -91.892818 1.496287 4.372372 1.029760 0.924261 3.591887 -0.878830 -1.209302 7.312907 0.835585 0.613015 1.703276 -1.303097 -1.638663 -5.999811 -0.055269 0.011318 -0.077966 -0.000263 0.413408 6.939561 -0.304479 2.421859 0.453469 0.327038 3.027221 -3.950697 -0.921563 -0.003230 0.085908 -0.000235
20.886074 89.179990 3.694770 -139.645657 -2.297920 0.080677 2.995919 0.659823 -0.223687 1.711507 0.373652 -0.092604 2.139301 0.467485 -0.114009 1.711507 0.373652 -0.092604 6.515351 13.399631 -0.913014 7.274001 -11.501134 -2.513880 -8.604351 -1.405868 0.957787 -1.949226 -0.673968 89.452435 -0.598419 7.495311 0.395268 -3.061371 3.368492 0.082762 -9.463702 -1.054285 0.974018 4.310505 0.371508 -91.890955 1.497163 4.374583 1.033597 0.926183 3.585345 -0.877682 -1.213206 7.311320 0.837718 0.610393 1.693868 -1.305349 -1.632161 -5.990763 -0.052786 0.011162 -0.077350 -0.001307 0.412315 6.928918 -0.302751 2.420981 0.461038 0.326609 3.029460 -3.951349 -0.924437 -0.003384 0.087273 0.001730
20.894516 89.179950 3.701997 -139.646661 -2.299077 0.078911 2.997861 0.655940 -0.222986 1.712668 0.372239 -0.092522 2.140752 0.465717 -0.113911 1.712668 0.372239 -0.092522 6.484982 13.403345 -0.912363 7.238998 -11.498403 -2.505435 -8.606121 -1.404663 0.953572 -1.936377 -0.683552 89.462202 -0.623044 7.504691 0.390796 -3.057457 3.373015 0.078437 -9.474670 -1.048328 0.983796 4.315276 0.372938 -91.889990 1.496691 4.374853 1.037347 0.925595 3.580531 -0.876858 -1.214548 7.310357 0.839517 0.607482 1.683325 -1.304877 -1.623329 -5.980428 -0.053207 0.011525 -0.076533 -0.001007 0.413612 6.919732 -0.299099 2.418843 0.466767 0.324570 3.031834 -3.951195 -0.924722 -0.003917 0.088661 0.001957
20.903279 89.179860 3.709863 -139.650120 -2.302152 0.077188 2.999314 0.653569 -0.222907 1.713658 0.371521 -0.092462 2.141990 0.464820 -0.113839 1.713658 0.371521 -0.092462 6.455019 13.406821 -0.911262 7.204369 -11.495913 -2.496610 -8.602439 -1.404924 0.948483 -1.926939 -0.693490 89.472934 -0.644594 7.516027 0.385795 -3.055493 3.378731 0.076340 -9.483045 -1.045420 0.995289 4.325771 0.377557 -91.888829 1.495277 4.377420 1.037577 0.922973 3.577533 -0.873073 -1.212531 7.310353 0.842718 0.603058 1.673310 -1.303717 -1.621330 -5.970029 -0.055596 0.011544 -0.075405 -0.000104 0.416004 6.913365 -0.295438 2.416789 0.470182 0.321977 3.033956 -3.949633 -0.922895 -0.004842 0.089689 0.000844
20.912138 89.179733 3.718411 -139.654354 -2.305688 0.076247 3.000960 0.652460 -0.223491 1.714584 0.371300 -0.092518 2.143148 0.464544 -0.113908 1.714584 0.371300 -0.092518 6.424389 13.408946 -0.908700 7.168652 -11.494906 -2.486042 -8.598697 -1.408251 0.943454 -1.917991 -0.699851 89.482547 -0.659306 7.527258 0.385156 -3.056122 3.382737 0.072205 -9.491506 -1.047194 1.006811 4.341027 0.383840 -91.884382 1.495419 4.383880 1.036752 0.922446 3.577117 -0.870300 -1.210316 7.310004 0.846967 0.599972 1.664088 -1.304221 -1.626187 -5.960260 -0.057321 0.010638 -0.073739 0.000396 0.417831 6.907913 -0.293051 2.414843 0.472106 0.319483 3.036538 -3.947224 -0.920511 -0.005766 0.090621 -0.000294
20.921149 89.179593 3.727588 -139.661235 -2.307855 0.075651 3.003548 0.651514 -0.223988 1.715854 0.370750 -0.092595 2.144735 0.463858 -0.114006 1.715854 0.370750 -0.092595 6.391486 13.410075 -0.904441 7.129944 -11.495070 -2.473066 -8.594946 -1.411977 0.938786 -1.909032 -0.704314 89.490057 -0.668256 7.534320 0.389529 -3.056432 3.382869 0.065978 -9.500894 -1.051235 1.016350 4.358493 0.390924 -91.876607 1.499122 4.392371 1.037385 0.922069 3.580262 -0.870652 -1.206115 7.307693 0.851442 0.598633 1.655067 -1.307155 -1.629078 -5.951036 -0.058075 0.009763 -0.071458 0.001207 0.421701 6.900250 -0.291192 2.412869 0.475674 0.316669 3.039873 -3.946236 -0.917276 -0.006663 0.091775 -0.001560
20.929989 89.179497 3.736941 -139.669095 -2.310533 0.075336 3.006133 0.650620 -0.224066 1.717277 0.369924 -0.092603 2.146514 0.462825 -0.114019 1.717277 0.369924 -0.092603 6.352597 13.410783 -0.899631 7.084295 -11.495916 -2.457988 -8.590781 -1.414925 0.934956 -1.902054 -0.707988 89.494380 -0.672631 7.536634 0.398502 -3.056522 3.380045 0.059579 -9.508598 -1.055003 1.023417 4.368463 0.397534 -91.868029 1.506406 4.398573 1.036614 0.920087 3.582555 -0.869377 -1.199232 7.305798 0.855009 0.597762 1.646405 -1.311020 -1.627085 -5.943086 -0.059093 0.010044 -0.068794 0.002952 0.426133 6.891817 -0.290516 2.413042 0.481934 0.315082 3.041730 -3.946559 -0.913710 -0.007490 0.092524 -0.003199
20.938450 89.179492 3.746180 -139.675874 -2.314914 0.075581 3.007387 0.649997 -0.224169 1.718113 0.369128 -0.092619 2.147559 0.461831 -0.114042 1.718113 0.369128 -0.092619 6.305409 13.411445 -0.894788 7.029202 -11.497124 -2.440788 -8.586910 -1.418753 0.932513 -1.897487 -0.709301 89.497245 -0.673518 7.536501 0.408678 -3.057599 3.378863 0.052897 -9.512676 -1.057995 1.028688 4.370085 0.403310 -91.858333 1.515577 4.403177 1.034341 0.918405 3.582146 -0.867899 -1.190477 7.305968 0.857098 0.597250 1.637864 -1.314233 -1.623701 -5.935992 -0.060555 0.011259 -0.066404 0.004925 0.430849 6.884456 -0.291328 2.415042 0.489406 0.315094 3.041440 -3.946273 -0.911548 -0.008273 0.092223 -0.003931
20.946634 89.179601 3.755396 -139.683083 -2.319650 0.077054 3.007082 0.649343 -0.223898 1.717977 0.368354 -0.092690 2.147390 0.460863 -0.114134 1.717977 0.368354 -0.092690 6.249682 13.413123 -0.890223 6.964473 -11.497565 -2.421738 -8.581986 -1.424180 0.929217 -1.893382 -0.709045 89.502424 -0.674566 7.534468 0.414305 -3.054751 3.380304 0.048054 -9.514990 -1.061090 1.031271 4.372784 0.410652 -91.846301 1.521279 4.410533 1.033054 0.920098 3.580840 -0.867967 -1.179522 7.307285 0.858899 0.597546 1.627834 -1.318646 -1.623625 -5.927931 -0.061944 0.012325 -0.064604 0.007032 0.437669 6.877540 -0.293492 2.416590 0.496917 0.315632 3.040277 -3.945187 -0.910834 -0.008722 0.091292 -0.003564
20.954767 89.179840 3.764307 -139.690338 -2.324852 0.078403 3.005782 0.648967 -0.223687 1.717269 0.367993 -0.092768 2.146504 0.460412 -0.114234 1.717269 0.367993 -0.092768 6.182495 13.415209 -0.885717 6.886772 -11.497991 -2.399877 -8.576492 -1.431798 0.925943 -1.889463 -0.709399 89.509475 -0.677618 7.531946 0.417013 -3.048761 3.380772 0.044277 -9.518972 -1.066384 1.033480 4.380854 0.422025 -91.833212 1.522760 4.420779 1.031230 0.922174 3.581461 -0.865493 -1.168730 7.309900 0.864668 0.599417 1.616241 -1.326537 -1.635009 -5.917972 -0.062410 0.011855 -0.063848 0.008512 0.445297 6.871898 -0.295224 2.416147 0.503212 0.316314 3.039469 -3.943842 -0.910247 -0.008866 0.090534 -0.003430
20.963243 89.180199 3.772661 -139.696504 -2.329860 0.077553 3.004802 0.647844 -0.223756 1.716762 0.367613 -0.092636 2.145871 0.459936 -0.114072 1.716762 0.367613 -0.092636 6.099721 13.417668 -0.881686 6.791555 -11.498576 -2.374626 -8.569827 -1.440913 0.925830 -1.890557 -0.709716 89.514170 -0.682103 7.530972 0.421210 -3.045733 3.380047 0.038775 -9.526499 -1.071836 1.036099 4.394391 0.436180 -91.819278 1.523227 4.432076 1.027237 0.920347 3.584007 -0.861114 -1.162075 7.313128 0.874961 0.601340 1.603243 -1.336522 -1.650612 -5.906033 -0.060901 0.010472 -0.064261 0.008012 0.453265 6.867112 -0.294058 2.412079 0.507507 0.317100 3.039997 -3.942005 -0.910153 -0.008927 0.090139 -0.003429
